<svg width="12" height="22" viewBox="0 0 12 22" fill="none" xmlns="http://www.w3.org/2000/svg">
<path d="M5.65918 16.2598C5.00163 16.2598 4.38314 16.1361 3.80371 15.8887C3.22754 15.6413 2.71973 15.2979 2.28027 14.8584C1.84082 14.4189 1.49577 13.9095 1.24512 13.3301C0.997721 12.7507 0.874023 12.1322 0.874023 11.4746C0.874023 10.8171 0.997721 10.1986 1.24512 9.61914C1.49577 9.03971 1.84082 8.53027 2.28027 8.09082C2.71973 7.65137 3.22754 7.30794 3.80371 7.06055C4.38314 6.81315 5.00163 6.68945 5.65918 6.68945C6.31673 6.68945 6.93522 6.81315 7.51465 7.06055C8.09408 7.30794 8.60352 7.65137 9.04297 8.09082C9.48242 8.53027 9.82585 9.03971 10.0732 9.61914C10.3239 10.1986 10.4492 10.8171 10.4492 11.4746C10.4492 12.1322 10.3239 12.7507 10.0732 13.3301C9.82585 13.9095 9.48242 14.4189 9.04297 14.8584C8.60352 15.2979 8.09408 15.6413 7.51465 15.8887C6.93522 16.1361 6.31673 16.2598 5.65918 16.2598ZM4.59961 13.6865C4.6582 13.6865 4.70378 13.6686 4.73633 13.6328C4.76888 13.597 4.78516 13.5482 4.78516 13.4863V11.9971H5.96191C6.3623 11.9971 6.69108 11.8701 6.94824 11.6162C7.2054 11.3623 7.33398 11.0384 7.33398 10.6445C7.33398 10.2507 7.20378 9.92676 6.94336 9.67285C6.6862 9.41895 6.35905 9.29199 5.96191 9.29199H4.58984C4.53125 9.29199 4.4873 9.31152 4.45801 9.35059C4.42871 9.38639 4.41406 9.43359 4.41406 9.49219V13.4863C4.41406 13.5449 4.43034 13.5938 4.46289 13.6328C4.4987 13.6686 4.54427 13.6865 4.59961 13.6865ZM4.78516 11.6699V9.61426H5.94727C6.24349 9.61426 6.486 9.71029 6.6748 9.90234C6.86686 10.0944 6.96289 10.3418 6.96289 10.6445C6.96289 10.944 6.86686 11.1898 6.6748 11.3818C6.486 11.5739 6.24349 11.6699 5.94727 11.6699H4.78516Z" fill="#007AFF"/>
</svg>
