<svg width="12" height="22" viewBox="0 0 12 22" fill="none" xmlns="http://www.w3.org/2000/svg">
<path d="M5.65918 16.2646C5.00163 16.2646 4.38314 16.141 3.80371 15.8936C3.22754 15.6462 2.71973 15.3027 2.28027 14.8633C1.84082 14.4238 1.49577 13.9144 1.24512 13.335C0.997721 12.7555 0.874023 12.137 0.874023 11.4795C0.874023 10.8219 0.997721 10.2035 1.24512 9.62402C1.49577 9.0446 1.84082 8.53516 2.28027 8.0957C2.71973 7.65625 3.22754 7.31283 3.80371 7.06543C4.38314 6.81803 5.00163 6.69434 5.65918 6.69434C6.31673 6.69434 6.93522 6.81803 7.51465 7.06543C8.09408 7.31283 8.60352 7.65625 9.04297 8.0957C9.48242 8.53516 9.82585 9.0446 10.0732 9.62402C10.3239 10.2035 10.4492 10.8219 10.4492 11.4795C10.4492 12.137 10.3239 12.7555 10.0732 13.335C9.82585 13.9144 9.48242 14.4238 9.04297 14.8633C8.60352 15.3027 8.09408 15.6462 7.51465 15.8936C6.93522 16.141 6.31673 16.2646 5.65918 16.2646ZM4.57031 13.6914C4.62891 13.6914 4.67448 13.6735 4.70703 13.6377C4.73958 13.6019 4.75586 13.5531 4.75586 13.4912V11.6357H6.73828C6.79362 11.6357 6.83594 11.6211 6.86523 11.5918C6.89453 11.5592 6.90918 11.5202 6.90918 11.4746C6.90918 11.429 6.89453 11.39 6.86523 11.3574C6.83594 11.3249 6.79362 11.3086 6.73828 11.3086H4.75586V9.62891H6.91895C6.97428 9.62891 7.0166 9.61263 7.0459 9.58008C7.0752 9.54753 7.08984 9.50846 7.08984 9.46289C7.08984 9.41406 7.0752 9.375 7.0459 9.3457C7.0166 9.31315 6.97428 9.29688 6.91895 9.29688H4.56055C4.50195 9.29688 4.45801 9.31641 4.42871 9.35547C4.39941 9.39128 4.38477 9.4401 4.38477 9.50195V13.4912C4.38477 13.5498 4.40104 13.5986 4.43359 13.6377C4.4694 13.6735 4.51497 13.6914 4.57031 13.6914Z" fill="#AF52DE"/>
</svg>
