<svg width="12" height="22" viewBox="0 0 12 22" fill="none" xmlns="http://www.w3.org/2000/svg">
<path d="M5.65918 16.2598C5.00163 16.2598 4.38314 16.1361 3.80371 15.8887C3.22754 15.6413 2.71973 15.2979 2.28027 14.8584C1.84082 14.4189 1.49577 13.9095 1.24512 13.3301C0.997721 12.7507 0.874023 12.1322 0.874023 11.4746C0.874023 10.8171 0.997721 10.1986 1.24512 9.61914C1.49577 9.03971 1.84082 8.53027 2.28027 8.09082C2.71973 7.65137 3.22754 7.30794 3.80371 7.06055C4.38314 6.81315 5.00163 6.68945 5.65918 6.68945C6.31673 6.68945 6.93522 6.81315 7.51465 7.06055C8.09408 7.30794 8.60352 7.65137 9.04297 8.09082C9.48242 8.53027 9.82585 9.03971 10.0732 9.61914C10.3239 10.1986 10.4492 10.8171 10.4492 11.4746C10.4492 12.1322 10.3239 12.7507 10.0732 13.3301C9.82585 13.9095 9.48242 14.4189 9.04297 14.8584C8.60352 15.2979 8.09408 15.6413 7.51465 15.8887C6.93522 16.1361 6.31673 16.2598 5.65918 16.2598ZM5.70312 13.7207C5.98307 13.7207 6.24186 13.6719 6.47949 13.5742C6.71712 13.4733 6.91569 13.3366 7.0752 13.1641C7.2347 12.9883 7.33561 12.7881 7.37793 12.5635C7.3877 12.5179 7.39258 12.4854 7.39258 12.4658C7.39583 12.4463 7.39746 12.4268 7.39746 12.4072C7.39746 12.3486 7.38281 12.3031 7.35352 12.2705C7.32747 12.238 7.28516 12.2217 7.22656 12.2217C7.13867 12.2217 7.08008 12.2738 7.05078 12.3779C6.9987 12.6839 6.84896 12.9297 6.60156 13.1152C6.35742 13.2975 6.05794 13.3887 5.70312 13.3887C5.39714 13.3887 5.12695 13.3073 4.89258 13.1445C4.66146 12.9818 4.47917 12.7572 4.3457 12.4707C4.21224 12.181 4.14551 11.8473 4.14551 11.4697C4.14551 11.0954 4.21224 10.765 4.3457 10.4785C4.47917 10.1888 4.66146 9.96257 4.89258 9.7998C5.12695 9.63379 5.39714 9.55078 5.70312 9.55078C6.05794 9.55078 6.35905 9.64355 6.60645 9.8291C6.85384 10.0146 7.00195 10.2588 7.05078 10.5615C7.06706 10.6136 7.08822 10.6527 7.11426 10.6787C7.14355 10.7048 7.18099 10.7178 7.22656 10.7178C7.28516 10.7178 7.32747 10.7015 7.35352 10.6689C7.38281 10.6364 7.39746 10.5892 7.39746 10.5273C7.39746 10.5111 7.39583 10.4932 7.39258 10.4736C7.39258 10.4541 7.3877 10.4232 7.37793 10.3809C7.33236 10.1562 7.22819 9.95768 7.06543 9.78516C6.90592 9.60938 6.70736 9.47103 6.46973 9.37012C6.2321 9.26921 5.97656 9.21875 5.70312 9.21875C5.31901 9.21875 4.9821 9.31315 4.69238 9.50195C4.40267 9.69076 4.17643 9.95443 4.01367 10.293C3.85091 10.6315 3.76953 11.0238 3.76953 11.4697C3.76953 11.9189 3.85091 12.3128 4.01367 12.6514C4.17643 12.9867 4.40267 13.2487 4.69238 13.4375C4.9821 13.6263 5.31901 13.7207 5.70312 13.7207Z" fill="#34C759"/>
</svg>
