<svg width="10" height="22" viewBox="0 0 10 22" fill="none" xmlns="http://www.w3.org/2000/svg">
<path d="M4.58008 16.1426C3.82812 16.1426 3.17383 16.0107 2.61719 15.7471C2.0638 15.4867 1.63411 15.1204 1.32812 14.6484C1.02539 14.1764 0.874023 13.623 0.874023 12.9883C0.874023 12.6497 0.901693 12.3535 0.957031 12.0996C1.01562 11.8424 1.08561 11.6097 1.16699 11.4014C1.25163 11.193 1.33626 10.9928 1.4209 10.8008C1.50553 10.6055 1.57552 10.4036 1.63086 10.1953C1.6862 9.98698 1.71387 9.7526 1.71387 9.49219C1.71387 9.38151 1.70736 9.2627 1.69434 9.13574C1.68457 9.00553 1.67969 8.90788 1.67969 8.84277C1.67969 8.78743 1.69434 8.74349 1.72363 8.71094C1.75293 8.67513 1.79362 8.65723 1.8457 8.65723C1.97917 8.65723 2.13379 8.7028 2.30957 8.79395C2.48535 8.88184 2.65137 9.00879 2.80762 9.1748C2.96387 9.33757 3.08105 9.52962 3.15918 9.75098L2.9834 9.79492C3.08431 9.66471 3.15592 9.53125 3.19824 9.39453C3.24056 9.25456 3.26172 9.1097 3.26172 8.95996C3.26497 8.67025 3.20801 8.38216 3.09082 8.0957C2.97689 7.80599 2.82878 7.52441 2.64648 7.25098C2.46419 6.97754 2.27376 6.72201 2.0752 6.48438C2.03288 6.43229 2.00195 6.38672 1.98242 6.34766C1.96289 6.30534 1.95312 6.26465 1.95312 6.22559C1.95312 6.12467 1.99382 6.0498 2.0752 6.00098C2.15658 5.94889 2.27539 5.92285 2.43164 5.92285C2.87435 5.92285 3.33333 5.97331 3.80859 6.07422C4.28711 6.17513 4.75911 6.33138 5.22461 6.54297C5.6901 6.75456 6.12793 7.02311 6.53809 7.34863C6.9515 7.67415 7.31771 8.0599 7.63672 8.50586C7.95573 8.95182 8.20638 9.45964 8.38867 10.0293C8.57096 10.599 8.66211 11.237 8.66211 11.9434C8.66211 12.5749 8.56445 13.1494 8.36914 13.667C8.17708 14.1813 7.90039 14.624 7.53906 14.9951C7.17773 15.363 6.74642 15.6462 6.24512 15.8447C5.74707 16.0433 5.19206 16.1426 4.58008 16.1426ZM4.63867 14.7656C4.99023 14.7656 5.2832 14.6891 5.51758 14.5361C5.75195 14.3831 5.92611 14.1813 6.04004 13.9307C6.15397 13.6768 6.21094 13.4033 6.21094 13.1104C6.21094 12.8206 6.15397 12.5293 6.04004 12.2363C5.92611 11.9434 5.76009 11.6732 5.54199 11.4258C5.32389 11.1784 5.05371 10.9766 4.73145 10.8203C4.71191 10.8105 4.69564 10.8105 4.68262 10.8203C4.67285 10.8301 4.6696 10.8447 4.67285 10.8643C4.73145 11.2484 4.73633 11.5934 4.6875 11.8994C4.64193 12.2054 4.55892 12.4365 4.43848 12.5928C4.37663 12.4658 4.30664 12.3454 4.22852 12.2314C4.15039 12.1143 4.05762 12.0133 3.9502 11.9287C3.93717 11.9157 3.92415 11.9124 3.91113 11.9189C3.89811 11.9222 3.88997 11.9336 3.88672 11.9531C3.86719 12.0801 3.82324 12.1973 3.75488 12.3047C3.68978 12.4121 3.61816 12.5228 3.54004 12.6367C3.46517 12.7474 3.40007 12.8743 3.34473 13.0176C3.28939 13.1576 3.26172 13.3252 3.26172 13.5205C3.26172 13.8916 3.38704 14.1927 3.6377 14.4238C3.88835 14.6517 4.22201 14.7656 4.63867 14.7656Z" fill="#FF3B30"/>
</svg>
