<?xml version="1.0" encoding="UTF-8"?>
<svg xmlns="http://www.w3.org/2000/svg" viewBox="0 0 506.921 510.562">
  <defs>
    <style>
      .cls-1 {
        fill: #efa421;
      }

      .cls-2 {
        fill: #fff;
      }

      .cls-3 {
        fill: #231f20;
      }

      .cls-4 {
        fill: #fcb515;
      }

      .cls-4, .cls-5, .cls-6, .cls-7 {
        stroke: #231f20;
      }

      .cls-4, .cls-5, .cls-7 {
        stroke-miterlimit: 10;
        stroke-width: 19.438px;
      }

      .cls-5, .cls-6 {
        stroke-linecap: round;
      }

      .cls-5, .cls-7 {
        fill: none;
      }

      .cls-6 {
        fill: #038f46;
        stroke-linejoin: round;
        stroke-width: 7.775px;
      }
    </style>
  </defs>
  <g id="Layer_2" data-name="Layer 2">
    <path class="cls-4" d="M330.432,106.223c-24.018-9.767-61.293-20.326-103.08-13.614-14.591,2.344-25.627,6.133-30.146,7.78-11.084,4.037-42.492,15.897-65.154,44.733-8.692,11.06-13.25,22.609-22.366,45.705-10.908,27.638-12.47,38.973-29.174,94.328-13.088,43.374-15.916,48.962-20.422,55.43-7.643,10.971-15.46,17.792-33.063,41.816-8.671,11.834-13.038,17.843-14.587,22.366-7.087,20.7,.335,45.556,14.587,61.265,8.035,8.856,16.541,12.931,30.146,19.449,6.61,3.167,20.3,9.141,38.898,12.642,27.621,5.2,49.619,1.848,67.099-.972,38.317-6.182,66.679-19.704,80.714-27.229,5.551-2.976,30.662-16.702,58.347-42.788,36.963-34.828,55.524-70.025,68.072-94.328,21.52-41.681,34.642-67.095,34.036-104.053-.215-13.131-1.228-46.799-24.311-79.741-16.894-24.11-37.908-36.837-49.595-42.788Z"/>
  </g>
  <g id="Layer_3" data-name="Layer 3">
    <path class="cls-1" d="M397.041,175.72c6.098,.444,11.355,34.852,6.807,68.072-1.21,8.835-4.719,29.322-24.311,69.044-12.776,25.903-26.797,54.33-53.485,85.576-16.809,19.68-47.195,55.256-99.19,78.769-23.914,10.814-80.906,37.627-143.923,19.449-10.513-3.032-59.043-17.031-72.934-53.485-3.15-8.266-7.789-26.27-3.89-28.201,2.36-1.169,6.918,4.012,10.697,7.78,0,0,9.208,9.179,42.788,26.256,23.431,11.916,77.163,12.086,129.336-6.807,68.881-24.943,107.864-73.27,126.419-96.273,41.367-51.282,60.473-106.592,62.237-111.832,11.059-32.86,14.109-58.736,19.449-58.347Z"/>
  </g>
  <g id="Layer_4" data-name="Layer 4">
    <path class="cls-7" d="M330.432,106.223c-24.018-9.767-61.293-20.326-103.08-13.614-14.591,2.344-25.627,6.133-30.146,7.78-11.084,4.037-42.492,15.897-65.154,44.733-8.692,11.06-13.25,22.609-22.366,45.705-10.908,27.638-12.47,38.973-29.174,94.328-13.088,43.374-15.916,48.962-20.422,55.43-7.643,10.971-15.46,17.792-33.063,41.816-8.671,11.834-13.038,17.843-14.587,22.366-7.087,20.7,.335,45.556,14.587,61.265,8.035,8.856,16.541,12.931,30.146,19.449,6.61,3.167,20.3,9.141,38.898,12.642,27.621,5.2,49.619,1.848,67.099-.972,38.317-6.182,66.679-19.704,80.714-27.229,5.551-2.976,30.662-16.702,58.347-42.788,36.963-34.828,55.524-70.025,68.072-94.328,21.52-41.681,34.642-67.095,34.036-104.053-.215-13.131-1.228-46.799-24.311-79.741-16.894-24.11-37.908-36.837-49.595-42.788Z"/>
  </g>
  <g id="Layer_5" data-name="Layer 5">
    <path class="cls-2" d="M244.783,123.331c-3.083,2.757-6.711,7.351-12.799,10.472-7.947,4.074-14.936,9.798-22.572,14.428-14.633,8.871-21.95,13.307-29.553,19.547-8.043,6.602-6.409,6.859-20.943,21.176-10.64,10.48-28.286,27.861-31.88,25.132-.929-.705-.634-2.536-.465-3.491,3.634-20.55,16.522-37.93,16.522-37.931,2.541-3.922,11.877-17.856,28.622-31.182,14.3-11.38,26.877-16.645,30.019-17.918,5.393-2.186,9.879-3.319,18.849-5.585,17.409-2.269,28.882-1.962,24.201,5.352Z"/>
  </g>
  <g id="Layer_6" data-name="Layer 6">
    <ellipse class="cls-3" cx="307.896" cy="132.502" rx="10.666" ry="17.898" transform="translate(52.238 349.288) rotate(-63.581)"/>
    <path class="cls-5" d="M307.896,132.502c4.458-6.043,21.485-29.822,29.103-60.976,4.571-18.693,5.756-40.041-1.194-61.807"/>
    <path class="cls-6" d="M503.033,56.957c-14.429-10.941-27.587-16.984-36.577-20.375-12.574-4.743-21.006-5.811-24.057-6.137-6.269-.67-12.983-1.388-21.357,.491-9.592,2.153-16.422,6.604-27.003,13.501-5.523,3.6-7.216,5.166-11.047,7.855-23.61,16.574-40.454,20.69-43.205,22.83-2.209,1.718,11.766,9.519,16.693,11.292,12.987,4.675,24.477,2.826,29.458,1.964,7.634-1.322,13.354-3.827,24.794-8.837,8.677-3.8,10.479-5.232,16.202-7.855,12.021-5.509,21.503-7.18,39.277-10.31,9.495-1.672,21.979-3.45,36.822-4.419Z"/>
  </g>
</svg>